<svg width="22" height="20" viewBox="0 0 22 20" fill="none" xmlns="http://www.w3.org/2000/svg">
<path d="M14.08 1.79208L21.4512 14.1933C22.5105 15.9744 21.9902 18.3178 20.2885 19.4267C19.7173 19.8002 19.0516 19.9993 18.3712 20H3.62781C1.6247 20 0 18.3 0 16.2011C0 15.4911 0.190301 14.7966 0.547802 14.1933L7.92002 1.79208C8.97823 0.0109538 11.2156 -0.534606 12.9173 0.574292C13.3881 0.880961 13.7863 1.29763 14.08 1.79208ZM11.638 2.72431C11.5034 2.63682 11.3525 2.5778 11.1947 2.55084C11.0368 2.52387 10.8751 2.52951 10.7195 2.56742C10.5638 2.60532 10.4174 2.67471 10.289 2.77138C10.1607 2.86805 10.053 2.99 9.97263 3.12987L2.60151 15.5333C2.48177 15.7354 2.41866 15.9666 2.41891 16.2022C2.41891 16.9022 2.96011 17.4689 3.62891 17.4689H18.3701C18.5967 17.4689 18.8178 17.4022 19.0092 17.2778C19.2838 17.0934 19.4775 16.8092 19.5498 16.4842C19.6221 16.1593 19.5676 15.8186 19.3975 15.5333L12.0263 3.12987C11.9297 2.96656 11.7972 2.82782 11.6391 2.72431H11.638ZM11 15.5555C10.7083 15.5555 10.4285 15.4385 10.2222 15.2301C10.0159 15.0217 9.90003 14.7391 9.90003 14.4444C9.90003 14.1497 10.0159 13.8671 10.2222 13.6587C10.4285 13.4503 10.7083 13.3333 11 13.3333C11.2918 13.3333 11.5716 13.4503 11.7779 13.6587C11.9841 13.8671 12.1 14.1497 12.1 14.4444C12.1 14.7391 11.9841 15.0217 11.7779 15.2301C11.5716 15.4385 11.2918 15.5555 11 15.5555ZM11 5.55544C11.2918 5.55544 11.5716 5.67251 11.7779 5.88088C11.9841 6.08926 12.1 6.37187 12.1 6.66656V11.111C12.1 11.4057 11.9841 11.6883 11.7779 11.8967C11.5716 12.1051 11.2918 12.2222 11 12.2222C10.7083 12.2222 10.4285 12.1051 10.2222 11.8967C10.0159 11.6883 9.90003 11.4057 9.90003 11.111V6.66656C9.90003 6.37187 10.0159 6.08926 10.2222 5.88088C10.4285 5.67251 10.7083 5.55544 11 5.55544Z" fill="#FF7757"/>
</svg>
